# xmcd
# 
# Track frame offsets:
#     150
#     16623
#     33673
#     49303
#     60475
#     77380
#     94373
#     111415
#     129068
#     149353
#     167280
#     184850
# 
# Disc length: 2872
# 
# Revision: 9
# Processed by: cddbd v1.5.2PL0 Copyright (c) Steve Scherf et al.
# Submitted via: fre:ac v1.0.17
# 
DISCID=930b360c
DTITLE=Ricardo Arjona - Animal Nocturno
DYEAR=1993
DGENRE=Balada
TTITLE0=Libre
TTITLE1=Mi Primera Vez
TTITLE2=Mujeres
TTITLE3=Tiempo En Una Botella
TTITLE4=Como Olividarte
TTITLE5=Solo
TTITLE6=Baila Conmigo
TTITLE7=Quien Diría
TTITLE8=Te Encontraré
TTITLE9=Asi De Ilógico
TTITLE10=Animal Nocturno
TTITLE11=Jesus Es Verbo No Sustantivo
EXTD=@RetroMBJ - Melvin Brian\n\nhttps://www.facebook.com/RetroMBJ\nhttp://retrombj.blogspot.com
EXTT0=
EXTT1=
EXTT2=
EXTT3=
EXTT4=
EXTT5=
EXTT6=
EXTT7=
EXTT8=
EXTT9=
EXTT10=
EXTT11=
PLAYORDER=
